<?xml version="1.0" encoding="UTF-8"?>
<!DOCTYPE svg  PUBLIC '-//W3C//DTD SVG 1.1//EN'  'http://www.w3.org/Graphics/SVG/1.1/DTD/svg11.dtd'>
<svg enable-background="new 0 0 25.05 33.95" version="1.1" viewBox="0 0 25.05 33.95" xml:space="preserve" xmlns="http://www.w3.org/2000/svg">
<g clip-rule="evenodd" fill-rule="evenodd">
	<path d="m21.125 6.125l0.125 0.625 0.05 5.55v0.4c-0.399 0.333-1.149 0.517-2.25 0.55-0.967 0.033-1.65-0.017-2.05-0.15-0.167-0.067-0.283-0.133-0.35-0.2l-0.2-0.15 0.15-0.15v0.2c0.601 0.2 1.284 0.233 2.051 0.1 1.533-0.233 2.25-1.65 2.149-4.25-0.1-1.6-0.267-3.05-0.5-4.35 0.375 0.6 0.65 1.208 0.825 1.825zm-12.675 6.175v0.6c-0.4 0.3-1.2 0.417-2.4 0.35-0.6-0.033-1.066-0.1-1.4-0.2h-0.05c-0.333-0.1-0.583-0.216-0.75-0.35-0.033-0.034-0.067-0.067-0.1-0.1l0.8 0.35c0.133 0.033 0.267 0.066 0.4 0.1 0.466 0.067 0.933 0.067 1.4 0l0.45-0.15c0.733-0.233 1.15-0.85 1.25-1.85v-2.25c0-0.833 0.233-1.55 0.7-2.15 0.7-0.833 1.833-1.25 3.4-1.25 2.199 0 3.566 0.684 4.1 2.05l0.05 0.1 0.101 0.4c-0.2-0.6-0.551-1.1-1.051-1.5-0.367-0.267-0.767-0.45-1.2-0.55-0.2-0.033-0.4-0.05-0.601-0.05h-2.049c-0.833 0-1.55 0.3-2.15 0.9s-0.9 1.317-0.9 2.15v3.4z" fill="#545454"/>
		<linearGradient id="d" x1="2.8252" x2="22.85" y1="-12.437" y2="-12.437" gradientTransform="matrix(4.9938e-5 1 -1 -.001 .00028832 -.00019665)" gradientUnits="userSpaceOnUse">
		<stop stop-color="#D9D9D9" offset="0"/>
		<stop stop-color="#595959" offset="1"/>
	</linearGradient>
	<path d="m3.75 12.6v-5c0-1.667 0.6-3.1 1.8-4.3 1.167-1.2 2.6-1.8 4.3-1.8h5.35c1.666 0 3.1 0.6 4.3 1.8 0.813 0.813 1.354 1.754 1.625 2.825-0.175-0.617-0.45-1.225-0.825-1.825-0.533-0.8-1.166-1.417-1.899-1.85 1 0.933 1.55 2.316 1.649 4.15 0.033 0.233-0.017 1.55-0.149 3.95-0.034 1.034-0.417 1.7-1.15 2-0.366 0.167-1.083 0.25-2.15 0.25v-3.9c0-0.5-0.1-0.95-0.3-1.35l-0.05-0.1c-0.167-1.567-1.167-2.483-3-2.75-1.267-0.167-2.583-0.05-3.95 0.35-1.4 0.4-2.2 1.467-2.4 3.2-0.267 2.433-0.433 3.7-0.5 3.8-0.4 0.667-0.883 1-1.45 1-0.133-0.033-0.267-0.066-0.4-0.1l-0.801-0.35zm13.65-6.95c0 0.667 0.166 2.5 0.5 5.5 0.166-0.066 0.333-1.35 0.5-3.85 0.033-0.5 0-1.167-0.101-2-0.1-1-0.233-1.55-0.399-1.65-0.8-0.567-1.433-0.917-1.9-1.05-1.8-0.5-4.45-0.517-7.95-0.05-0.867 0.1-1.617 0.633-2.25 1.6-0.533 0.833-0.867 1.75-1 2.75-0.167 1.167-0.216 2.717-0.15 4.65 0.333-1.767 0.55-3.1 0.65-4 0.067-0.867 0.3-1.65 0.7-2.35 0.533-0.867 1.25-1.417 2.15-1.65 1.033-0.267 2.267-0.417 3.7-0.45 1.5-0.033 2.65 0.066 3.45 0.3 1.4 0.433 2.1 1.183 2.1 2.25z" fill="url(#d)"/>
	<path d="m21.125 6.125c-0.271-1.071-0.812-2.013-1.625-2.825-1.2-1.2-2.634-1.8-4.3-1.8h-5.35c-1.7 0-3.133 0.6-4.3 1.8-1.2 1.2-1.8 2.633-1.8 4.3v4.7h-0.1c-0.566 0-1.083 0.184-1.55 0.55-0.133 0.1-0.167 0.233-0.1 0.4-0.033 0.033-0.033 0.117 0 0.25-0.333 0.333-0.5 0.75-0.5 1.25v14.85c0 0.567 0.217 1.067 0.65 1.5 0.4 0.4 0.9 0.601 1.5 0.601 1.667 0.467 4.55 0.717 8.65 0.75h0.5c4.367 0 7.233-0.25 8.601-0.75 0.566 0 1.066-0.2 1.5-0.601 0.433-0.433 0.649-0.933 0.649-1.5v-14.85c0-0.467-0.133-0.867-0.399-1.2 0.033-0.1 0.033-0.183 0-0.25 0.066-0.167 0.017-0.3-0.15-0.4-0.434-0.4-0.967-0.6-1.6-0.6h-0.101l-0.05-5.55-0.125-0.625zm1.375-0.625l0.3 2.1v3.45c0.334 0.133 0.717 0.35 1.15 0.65 0.467 0.367 0.7 0.85 0.7 1.45 0.267 0.533 0.399 1.067 0.399 1.6v14.85c0 0.934-0.333 1.75-1 2.45-0.633 0.7-1.434 1.066-2.399 1.101-1.7 0.533-4.65 0.8-8.851 0.8h-1.1c-3.667-0.033-6.434-0.3-8.3-0.8-0.967-0.034-1.767-0.4-2.4-1.101-0.667-0.7-1-1.517-1-2.45v-14.85c0-0.6 0.15-1.183 0.45-1.75 0.066-0.6 0.316-1.05 0.75-1.35 0.3-0.233 0.65-0.433 1.05-0.6v-3.45c1e-3 -2.067 0.751-3.85 2.251-5.35 1.467-1.5 3.25-2.25 5.35-2.25h5.35c1.399 0 2.733 0.383 4 1.15 1.267 0.833 2.217 1.9 2.85 3.2l0.05 0.1 0.35 0.95 0.05 0.1zm-5.1 0.15c0-1.066-0.7-1.816-2.101-2.25-0.8-0.233-1.95-0.333-3.45-0.3-1.434 0.033-2.667 0.183-3.7 0.45-0.899 0.233-1.616 0.783-2.149 1.65-0.4 0.7-0.633 1.483-0.7 2.35-0.1 0.9-0.316 2.233-0.65 4-0.067-1.933-0.017-3.483 0.15-4.65 0.133-1 0.467-1.917 1-2.75 0.633-0.967 1.383-1.5 2.25-1.6 3.5-0.467 6.15-0.45 7.95 0.05 0.467 0.133 1.1 0.483 1.9 1.05 0.166 0.1 0.3 0.65 0.399 1.65 0.101 0.833 0.134 1.5 0.101 2-0.167 2.5-0.334 3.784-0.5 3.85-0.334-3-0.5-4.833-0.5-5.5zm-0.8 6.65h-8.15v-3.4c0-0.833 0.3-1.55 0.9-2.15s1.316-0.9 2.15-0.9h2.05c0.2 0 0.4 0.017 0.601 0.05 0.433 0.1 0.833 0.283 1.199 0.55 0.5 0.4 0.851 0.9 1.051 1.5l-0.101-0.4c0.2 0.4 0.3 0.85 0.3 1.35v3.4zm-2.15-4.6l-0.05-0.1h-0.05l-0.15-0.1-0.3-0.1 0.25-1.5-0.35 1.45h-2.3c-0.433 0-0.8 0.15-1.1 0.45s-0.45 0.667-0.45 1.1v1.9h5.15v-1.9l-0.1-0.5c-0.1-0.3-0.283-0.533-0.55-0.7z" fill="#fff"/>
	<path d="m3.75 12.3v0.3c0.033 0.033 0.067 0.066 0.1 0.1 0.167 0.133 0.417 0.25 0.75 0.35h0.05l0.1 0.1c0.733 0.267 1.8 0.35 3.2 0.25 1.233-0.066 1.9-0.233 2-0.5 0.133-0.233-0.367-0.417-1.5-0.55v-0.05h8.15v0.3l-0.149 0.15 0.2 0.15c0.066 0.067 0.183 0.133 0.35 0.2l0.1 0.05c0.7 0.267 1.767 0.35 3.2 0.25 1.2-0.066 1.867-0.233 2-0.5 0.066-0.2-0.267-0.367-1-0.5v-0.1h0.099c0.633 0 1.166 0.2 1.6 0.6 0.167 0.1 0.217 0.233 0.15 0.4l-0.05 0.05c-0.1 0.2-0.25 0.267-0.449 0.2-0.134-0.033-0.233-0.033-0.301 0-2 0.567-4.683 0.917-8.05 1.05h-3.8c-3.433-0.133-6.1-0.483-8-1.05h-0.1c-0.2 0-0.333-0.1-0.4-0.3-0.067-0.167-0.033-0.3 0.1-0.4 0.467-0.367 0.983-0.55 1.55-0.55h0.1zm3.85 1.4c-0.1 0-0.2 0.017-0.3 0.05 0.934 0.033 2.017 0.083 3.25 0.15h3.75c1.167-0.066 2.2-0.117 3.101-0.15-0.301-0.1-0.567-0.233-0.801-0.4l-0.45-0.65h-6c0.133 0.1 0.184 0.216 0.15 0.35-0.167 0.333-1.067 0.55-2.7 0.65zm-3.75-1h-0.2c-0.5 0-0.95 0.15-1.35 0.45h0.3c0.467 0.133 1.316 0.267 2.55 0.4-0.3-0.066-0.55-0.167-0.75-0.3l-0.55-0.55z" fill="#614C1F"/>
	<path d="m16.6 12.8c1.067 0 1.784-0.083 2.15-0.25 0.733-0.3 1.116-0.966 1.15-2 0.133-2.4 0.183-3.716 0.149-3.95-0.099-1.833-0.649-3.217-1.649-4.15 0.734 0.433 1.367 1.05 1.9 1.85 0.233 1.3 0.4 2.75 0.5 4.35 0.101 2.6-0.616 4.017-2.149 4.25-0.767 0.133-1.451 0.1-2.051-0.1zm-11.65 0.25c0.566 0 1.05-0.333 1.45-1 0.067-0.1 0.233-1.367 0.5-3.8 0.2-1.733 1-2.8 2.4-3.2 1.367-0.4 2.684-0.517 3.95-0.35 1.833 0.267 2.833 1.183 3 2.75-0.533-1.367-1.9-2.05-4.1-2.05-1.567 0-2.7 0.417-3.4 1.25-0.467 0.6-0.7 1.317-0.7 2.15v2.25c-0.1 1-0.517 1.617-1.25 1.85l-0.45 0.15c-0.467 0.067-0.933 0.067-1.4 0z" fill="#8A8A8A"/>
	<path d="m5.325 14.675l-0.475-0.125c-0.3-0.067-0.55-0.15-0.75-0.25-0.8-0.267-1.333-0.433-1.6-0.5h-0.1c-0.2 0-0.333-0.083-0.4-0.25v-0.05c-0.033-0.133-0.033-0.217 0-0.25 0.067 0.2 0.2 0.3 0.4 0.3h0.1c1.9 0.567 4.567 0.917 8 1.05h3.8c3.367-0.133 6.05-0.483 8.05-1.05 0.067-0.033 0.167-0.033 0.301 0 0.199 0.067 0.35 0 0.449-0.2l0.051-0.05c0.033 0.067 0.033 0.15 0 0.25l-0.051 0.05c-0.1 0.2-0.25 0.267-0.449 0.2h-0.301c-0.8 0.3-1.6 0.55-2.399 0.75-1.5 0.4-3.384 0.633-5.65 0.7h-3.8c-2.008-0.06-3.733-0.251-5.176-0.575z" fill="#F5DDA0"/>
	<path d="m12.3 32.45c3.8-0.101 6.45-0.9 7.95-2.4 1.333-1.366 1.967-3.616 1.9-6.75-0.067-3.899-0.184-6.033-0.351-6.4-0.467-1.066-2.1-1.517-4.899-1.35-3.634 0.233-6.917 0.067-9.851-0.5-0.65-0.125-1.225-0.25-1.725-0.375 1.443 0.324 3.168 0.515 5.175 0.575h3.8c2.267-0.067 4.15-0.3 5.65-0.7 0.8-0.2 1.6-0.45 2.399-0.75h0.301c0.199 0.067 0.35 0 0.449-0.2l0.051-0.05c0.267 0.333 0.399 0.733 0.399 1.2v14.85c0 0.567-0.217 1.067-0.649 1.5-0.434 0.4-0.934 0.601-1.5 0.601-1.367 0.5-4.233 0.75-8.601 0.75h-0.498z" fill="#614C21"/>
	<path d="m21.3 12.4c0.733 0.133 1.066 0.3 1 0.5-0.133 0.267-0.8 0.434-2 0.5-1.434 0.1-2.5 0.017-3.2-0.25l-0.1-0.05c0.4 0.133 1.083 0.183 2.05 0.15 1.101-0.033 1.851-0.217 2.25-0.55v-0.3zm-12.85-0.05c1.133 0.133 1.633 0.316 1.5 0.55-0.1 0.267-0.767 0.434-2 0.5-1.4 0.1-2.467 0.017-3.2-0.25l-0.1-0.1c0.333 0.1 0.8 0.167 1.4 0.2 1.2 0.067 2-0.05 2.4-0.35v-0.55z" fill="#473816"/>
	<linearGradient id="e" x1="1.3501" x2="23.45" y1="22.975" y2="22.975" gradientUnits="userSpaceOnUse">
		<stop stop-color="#8C6732" offset="0"/>
		<stop stop-color="#E7C17E" offset=".2627"/>
		<stop stop-color="#9C7A35" offset=".6196"/>
		<stop stop-color="#654C21" offset="1"/>
	</linearGradient>
	<path d="m2 13.5v0.05c0.067 0.167 0.2 0.25 0.4 0.25h0.1c0.267 0.067 0.8 0.233 1.6 0.5 0.2 0.1 0.45 0.184 0.75 0.25l0.475 0.125c0.5 0.125 1.075 0.25 1.725 0.375 2.934 0.567 6.217 0.733 9.851 0.5 2.8-0.167 4.433 0.284 4.899 1.35 0.167 0.367 0.283 2.5 0.351 6.4 0.066 3.134-0.567 5.384-1.9 6.75-1.5 1.5-4.15 2.3-7.95 2.4-4.1-0.033-6.983-0.283-8.65-0.75-0.6 0-1.1-0.2-1.5-0.601-0.433-0.433-0.65-0.933-0.65-1.5v-14.849c-1e-3 -0.5 0.166-0.917 0.499-1.25z" fill="url(#e)"/>
	<linearGradient id="f" x1="-1.6875" x2="26.188" y1="13.3" y2="13.3" gradientUnits="userSpaceOnUse">
		<stop stop-color="#8A7751" offset="0"/>
		<stop stop-color="#C0A267" offset=".6196"/>
		<stop stop-color="#725C35" offset="1"/>
	</linearGradient>
	<path d="m7.6 13.7c1.633-0.1 2.533-0.317 2.7-0.65 0.034-0.133-0.017-0.25-0.15-0.35h6l0.449 0.65c0.233 0.167 0.5 0.3 0.801 0.4-0.9 0.033-1.934 0.083-3.101 0.15h-3.75c-1.233-0.066-2.316-0.117-3.25-0.15 0.101-0.033 0.201-0.05 0.301-0.05zm-3.75-1l0.55 0.55c0.2 0.133 0.45 0.233 0.75 0.3-1.233-0.133-2.083-0.267-2.55-0.4h-0.3c0.4-0.3 0.85-0.45 1.35-0.45h0.2z" fill="url(#f)"/>
</g>
</svg>
