<?xml version="1.0" encoding="UTF-8" standalone="no"?>
<svg
   xmlns:dc="http://purl.org/dc/elements/1.1/"
   xmlns:cc="http://creativecommons.org/ns#"
   xmlns:rdf="http://www.w3.org/1999/02/22-rdf-syntax-ns#"
   xmlns:svg="http://www.w3.org/2000/svg"
   xmlns="http://www.w3.org/2000/svg"
   xmlns:sodipodi="http://sodipodi.sourceforge.net/DTD/sodipodi-0.dtd"
   xmlns:inkscape="http://www.inkscape.org/namespaces/inkscape"
   version="1.1"
   id="svg825"
   xml:space="preserve"
   width="4535.4268"
   height="4535.4268"
   viewBox="0 0 4535.4268 4535.4268"
   sodipodi:docname="sleeping.svg"
   inkscape:version="1.0.1 (c497b03c, 2020-09-10)"><metadata
     id="metadata831"><rdf:RDF><cc:Work
         rdf:about=""><dc:format>image/svg+xml</dc:format><dc:type
           rdf:resource="http://purl.org/dc/dcmitype/StillImage" /><dc:title></dc:title></cc:Work></rdf:RDF></metadata><defs
     id="defs829"><clipPath
       clipPathUnits="userSpaceOnUse"
       id="clipPath843"><path
         d="M 0,3401.57 H 3401.57 V 0 H 0 Z"
         id="path841" /></clipPath></defs><sodipodi:namedview
     pagecolor="#ffffff"
     bordercolor="#666666"
     borderopacity="1"
     objecttolerance="10"
     gridtolerance="10"
     guidetolerance="10"
     inkscape:pageopacity="0"
     inkscape:pageshadow="2"
     inkscape:window-width="1792"
     inkscape:window-height="1049"
     id="namedview827"
     showgrid="false"
     inkscape:zoom="0.081028759"
     inkscape:cx="-319.09156"
     inkscape:cy="2326.8559"
     inkscape:window-x="0"
     inkscape:window-y="23"
     inkscape:window-maximized="1"
     inkscape:current-layer="svg825" /><g
     id="g833"
     inkscape:label="clock-1673583"
     transform="matrix(1.1140572,0,0,-1.1140572,372.94094,4162.4873)"><path
       id="path835"
       style="display:inline;fill:#0a1c36;fill-opacity:1;fill-rule:nonzero;stroke:none"
       sodipodi:type="inkscape:offset"
       inkscape:radius="0"
       inkscape:original="M 1695.2246 -592.30859 C 1659.6947 -592.22309 1624.1668 -591.54859 1588.6582 -590.31641 C 1502.5662 -587.23541 1416.5829 -580.64472 1331.0352 -570.41406 C 1242.9908 -559.89694 1155.4066 -545.52735 1068.6543 -527.12695 C 1017.1412 -516.1804 965.88533 -503.83493 915.07422 -489.95703 C 859.97395 -474.94255 805.32724 -458.14778 751.35742 -439.53125 C 701.84246 -422.44679 652.88063 -403.79569 604.57422 -383.50781 C 563.89456 -366.40636 523.64286 -348.12911 484.0293 -328.63086 C 438.73996 -306.34389 394.17921 -282.41373 350.63281 -256.83398 C 310.96244 -233.51694 272.09238 -208.79992 234.23047 -182.62891 C 147.11864 -122.40178 65.15436 -54.356938 -8.6992188 21.666016 C -51.022901 65.214651 -90.775383 111.31666 -127.92188 159.39258 C -153.64717 192.67363 -178.12727 226.92673 -201.41211 261.96875 C -231.66573 307.49804 -259.90764 354.43876 -286.20117 402.39258 C -305.01477 436.69268 -322.84062 471.56541 -339.69336 506.84961 C -365.94371 561.81176 -389.86325 617.87877 -411.6543 674.75391 C -433.39121 731.55348 -453.00218 789.20678 -470.55469 847.45508 C -487.04141 902.13915 -501.73413 957.38346 -514.72461 1013.0098 C -539.01134 1117.0821 -557.35046 1222.542 -570.12891 1328.6562 C -580.30338 1413.2678 -586.9374 1498.3195 -590.11719 1583.5059 C -592.89665 1658.2029 -593.02424 1733.0365 -590.48242 1807.7559 C -588.91229 1854.0376 -586.31444 1900.2928 -582.67969 1946.4629 C -579.55151 1986.2972 -575.65273 2026.0892 -570.9668 2065.7812 C -556.18715 2191.102 -533.66675 2315.555 -502.70703 2437.959 C -487.98809 2496.1714 -471.32843 2553.9631 -452.67773 2611.0371 C -435.07431 2664.8711 -415.69336 2718.1347 -394.38477 2770.6289 C -372.34856 2824.9249 -348.25532 2878.4575 -322.00391 2930.873 C -284.5132 3005.7244 -242.5731 3078.4397 -195.83984 3147.9473 C -143.4717 3225.8341 -85.074003 3299.7231 -20.371094 3367.7578 C 58.526705 3450.8073 146.98855 3524.552 241.50977 3589.1953 C 275.99712 3612.7846 311.29358 3635.1766 347.30078 3656.4375 C 399.5001 3687.2356 453.15202 3715.6454 507.90039 3741.7598 C 543.95599 3758.9618 580.49716 3775.1607 617.42383 3790.418 C 648.57245 3803.2867 680.05652 3815.504 711.76172 3827.0469 C 765.02566 3846.4454 818.97902 3864.0071 873.43164 3879.8086 C 925.87253 3895.0341 978.81745 3908.6278 1032.0859 3920.6738 C 1089.7776 3933.7004 1147.9368 3944.9604 1206.3535 3954.4238 C 1245.9374 3960.8548 1285.6026 3966.4714 1325.3984 3971.2988 C 1386.0412 3978.6735 1446.9346 3984.1913 1507.9395 3987.957 C 1579.342 3992.3411 1650.9301 3994.2785 1722.4902 3993.7871 C 1799.8069 3993.2496 1877.0807 3989.899 1954.1445 3983.6426 C 2004.1318 3979.5968 2054.0189 3974.3204 2103.748 3967.8203 C 2174.8186 3958.5425 2245.61 3946.7109 2315.832 3932.2539 C 2348.9141 3925.4508 2381.8829 3918.0498 2414.7129 3910.0508 C 2449.5071 3901.5688 2484.189 3892.4096 2518.6367 3882.543 C 2574.9873 3866.422 2630.8686 3848.4026 2685.9922 3828.4375 C 2733.0783 3811.3805 2779.5995 3792.8812 2825.5078 3772.8555 C 2846.7509 3763.5912 2867.9485 3753.9558 2888.8887 3744.0254 C 2951.0181 3714.5789 3011.769 3682.1951 3070.6387 3646.668 C 3119.1457 3617.3726 3166.4354 3585.9159 3212.0527 3552.248 C 3269.3105 3509.977 3324.0299 3464.1452 3375.3027 3414.7266 C 3412.7461 3378.6245 3448.3512 3340.5605 3481.9355 3300.9355 C 3507.563 3270.7175 3532.0682 3239.5864 3555.4922 3207.6426 C 3604.8953 3140.277 3649.4398 3069.4002 3689.457 2996.1035 C 3722.5582 2935.4663 3752.6011 2873.1209 3779.7363 2809.5742 C 3802.7945 2755.5854 3823.8014 2700.6795 3842.8418 2645.1152 C 3861.9241 2589.4313 3879.0536 2533.0446 3894.3164 2476.1816 C 3905.2138 2435.5983 3915.1645 2394.718 3924.2012 2353.6816 C 3930.5502 2324.8266 3936.4567 2295.8509 3941.9102 2266.7949 C 3951.6462 2214.9551 3959.9843 2162.7728 3966.9375 2110.4746 C 3971.6764 2074.8677 3975.7752 2039.1837 3979.2539 2003.4219 C 3985.1472 1942.6231 3989.2689 1881.6332 3991.5938 1820.5605 C 3994.3807 1746.968 3994.6084 1673.2253 3992.2383 1599.5977 C 3990.1529 1534.3359 3986.014 1469.1261 3979.8242 1404.1152 C 3973.8633 1341.4561 3965.9664 1278.9912 3956.1094 1216.8066 C 3948.7713 1170.5071 3940.3102 1124.3337 3930.7402 1078.4082 C 3919.5693 1024.8792 3906.8609 971.61564 3892.543 918.80859 C 3874.9396 853.87069 3854.8916 789.57104 3832.25 726.19141 C 3819.4553 690.35323 3805.8142 654.80197 3791.3223 619.60742 C 3780.0574 592.27131 3768.2549 565.09199 3755.9219 538.19531 C 3721.7964 463.74805 3683.5353 391.15244 3640.7734 321.23633 C 3582.1393 225.39334 3514.9426 134.47164 3438.7422 51.757812 C 3415.9565 27.033798 3392.3528 3.019223 3367.9805 -20.171875 C 3319.4503 -66.318356 3267.8937 -109.34428 3214.0586 -149.20312 C 3179.0633 -175.12176 3143.0426 -199.74713 3106.2148 -223.08594 C 3063.908 -249.91847 3020.5523 -275.02969 2976.3203 -298.55469 C 2889.1731 -344.88913 2798.6829 -385.00185 2706.166 -419.45703 C 2630.0192 -447.81631 2552.4702 -472.33984 2473.9453 -493.35547 C 2435.3791 -503.67052 2396.5503 -513.14227 2357.5547 -521.77734 C 2328.8525 -528.13947 2299.9766 -534.05962 2271.1016 -539.5332 C 2214.9998 -550.15223 2158.5285 -559.13853 2101.8828 -566.50586 C 2008.0294 -578.7097 1913.5684 -586.53298 1818.9531 -590.0918 C 1777.7476 -591.63335 1736.4698 -592.36681 1695.2246 -592.30859 z "
       d="m 1695.2246,-592.30859 c -35.5299,0.0855 -71.0578,0.76 -106.5664,1.99218 -86.092,3.081 -172.0753,9.67169 -257.623,19.90235 -88.0444,10.51712 -175.6286,24.88671 -262.3809,43.28711 -51.5131,10.94655 -102.76897,23.29202 -153.58008,37.16992 -55.10027,15.01448 -109.74698,31.80925 -163.7168,50.42578 -49.51496,17.08446 -98.47679,35.73556 -146.7832,56.02344 -40.67966,17.10145 -80.93136,35.3787 -120.54492,54.87695 -45.28934,22.28697 -89.85009,46.21713 -133.39649,71.79688 -39.67037,23.31704 -78.54043,48.03406 -116.40234,74.20507 C 147.11864,-122.40178 65.15436,-54.356938 -8.6992188,21.666016 -51.022901,65.214651 -90.775383,111.31666 -127.92188,159.39258 c -25.72529,33.28105 -50.20539,67.53415 -73.49023,102.57617 -30.25362,45.52929 -58.49553,92.47001 -84.78906,140.42383 -18.8136,34.3001 -36.63945,69.17283 -53.49219,104.45703 -26.25035,54.96215 -50.16989,111.02916 -71.96094,167.9043 -21.73691,56.79957 -41.34788,114.45287 -58.90039,172.70117 -16.48672,54.68407 -31.17944,109.92838 -44.16992,165.55472 -24.28673,104.0723 -42.62585,209.5322 -55.4043,315.6464 -10.17447,84.6116 -16.80849,169.6633 -19.98828,254.8497 -2.77946,74.697 -2.90705,149.5306 -0.36523,224.25 1.57013,46.2817 4.16798,92.5369 7.80273,138.707 3.12818,39.8343 7.02696,79.6263 11.71289,119.3183 14.77965,125.3208 37.30005,249.7738 68.25977,372.1778 14.71894,58.2124 31.3786,116.0041 50.0293,173.0781 17.60342,53.834 36.98437,107.0976 58.29296,159.5918 22.03621,54.296 46.12945,107.8286 72.38086,160.2441 37.49071,74.8514 79.43081,147.5667 126.16407,217.0743 52.36814,77.8868 110.765837,151.7758 175.468746,219.8105 78.897799,83.0495 167.359644,156.7942 261.880864,221.4375 34.48735,23.5893 69.78381,45.9813 105.79101,67.2422 52.19932,30.7981 105.85124,59.2079 160.59961,85.3223 36.0556,17.202 72.59677,33.4009 109.52344,48.6582 31.14862,12.8687 62.63269,25.086 94.33789,36.6289 53.26394,19.3985 107.2173,36.9602 161.66992,52.7617 52.44089,15.2255 105.38581,28.8192 158.65426,40.8652 57.6917,13.0266 115.8509,24.2866 174.2676,33.75 39.5839,6.431 79.2491,12.0476 119.0449,16.875 60.6428,7.3747 121.5362,12.8925 182.5411,16.6582 71.4025,4.3841 142.9906,6.3215 214.5507,5.8301 77.3167,-0.5375 154.5905,-3.8881 231.6543,-10.1445 49.9873,-4.0458 99.8744,-9.3222 149.6035,-15.8223 71.0706,-9.2778 141.862,-21.1094 212.084,-35.5664 33.0821,-6.8031 66.0509,-14.2041 98.8809,-22.2031 34.7942,-8.482 69.4761,-17.6412 103.9238,-27.5078 56.3506,-16.121 112.2319,-34.1404 167.3555,-54.1055 47.0861,-17.057 93.6073,-35.5563 139.5156,-55.582 21.2431,-9.2643 42.4407,-18.8997 63.3809,-28.8301 62.1294,-29.4465 122.8803,-61.8303 181.75,-97.3574 48.507,-29.2954 95.7967,-60.7521 141.414,-94.42 57.2578,-42.271 111.9772,-88.1028 163.25,-137.5214 37.4434,-36.1021 73.0485,-74.1661 106.6328,-113.7911 25.6275,-30.218 50.1327,-61.3491 73.5567,-93.2929 49.4031,-67.3656 93.9476,-138.2424 133.9648,-211.5391 33.1012,-60.6372 63.1441,-122.9826 90.2793,-186.5293 23.0582,-53.9888 44.0651,-108.8947 63.1055,-164.459 19.0823,-55.6839 36.2118,-112.0706 51.4746,-168.9336 10.8974,-40.5833 20.8481,-81.4636 29.8848,-122.5 6.349,-28.855 12.2555,-57.8307 17.709,-86.8867 9.736,-51.8398 18.0741,-104.0221 25.0273,-156.3203 4.7389,-35.6069 8.8377,-71.2909 12.3164,-107.0527 5.8933,-60.7988 10.015,-121.7887 12.3399,-182.8614 2.7869,-73.5925 3.0146,-147.3352 0.6445,-220.9628 -2.0854,-65.2618 -6.2243,-130.4716 -12.4141,-195.4825 -5.9609,-62.6591 -13.8578,-125.124 -23.7148,-187.3086 -7.3381,-46.2995 -15.7992,-92.4729 -25.3692,-138.3984 -11.1709,-53.529 -23.8793,-106.79256 -38.1972,-159.59961 -17.6034,-64.9379 -37.6514,-129.23755 -60.293,-192.61718 -12.7947,-35.83818 -26.4358,-71.38944 -40.9277,-106.58399 -11.2649,-27.33611 -23.0674,-54.51543 -35.4004,-81.41211 -34.1255,-74.44726 -72.3866,-147.04287 -115.1485,-216.95898 -58.6341,-95.84299 -125.8308,-186.76469 -202.0312,-269.478518 -22.7857,-24.724014 -46.3894,-48.738589 -70.7617,-71.929687 -48.5302,-46.146481 -100.0868,-89.172405 -153.9219,-129.031245 -34.9953,-25.91864 -71.016,-50.54401 -107.8438,-73.88282 -42.3068,-26.83253 -85.6625,-51.94375 -129.8945,-75.46875 -87.1472,-46.33444 -177.6374,-86.44716 -270.1543,-120.90234 -76.1468,-28.35928 -153.6958,-52.88281 -232.2207,-73.89844 -38.5662,-10.31505 -77.395,-19.7868 -116.3906,-28.42187 -28.7022,-6.36213 -57.5781,-12.28228 -86.4531,-17.75586 -56.1018,-10.61903 -112.5731,-19.60533 -169.2188,-26.97266 -93.8534,-12.20384 -188.3144,-20.02712 -282.9297,-23.58594 -41.2055,-1.54155 -82.4833,-2.27501 -123.7285,-2.21679 z"
       transform="matrix(0.83450478,0,0,0.83450478,281.47131,281.47013)" /><g
       id="g837"><g
         id="g839"
         clip-path="url(#clipPath843)"><g
           id="g845"
           transform="translate(1700.7849,689.2021)"><path
             d="m 0,0 c -558.682,0 -1011.583,452.901 -1011.583,1011.583 0,558.682 452.901,1011.583 1011.583,1011.583 558.682,0 1011.583,-452.901 1011.583,-1011.583 C 1011.583,452.901 558.682,0 0,0 m 0,2087.857 c -594.41,0 -1076.274,-481.865 -1076.274,-1076.274 0,-594.41 481.864,-1076.274 1076.274,-1076.274 594.41,0 1076.274,481.864 1076.274,1076.274 0,594.409 -481.864,1076.274 -1076.274,1076.274"
             style="fill:#f1f1f2;fill-opacity:1;fill-rule:nonzero;stroke:none"
             id="path847" /></g><path
           d="m 1724.314,2518.629 h -47.059 v 123.529 h 47.059 z"
           style="fill:#ffffff;fill-opacity:1;fill-rule:nonzero;stroke:none"
           id="path849" /><path
           d="m 1724.314,768.322 h -47.059 v 123.529 h 47.059 z"
           style="fill:#ffffff;fill-opacity:1;fill-rule:nonzero;stroke:none"
           id="path851" /><g
           id="g853"
           transform="translate(996.1561,1298.5846)"><path
             d="m 0,0 16.982,-28.099 -105.723,-63.893 -16.982,28.099 z"
             style="fill:#ffffff;fill-opacity:1;fill-rule:nonzero;stroke:none"
             id="path855" /></g><g
           id="g857"
           transform="translate(2494.1548,2203.8877)"><path
             d="m 0,0 16.982,-28.099 -105.723,-63.893 -16.981,28.099 z"
             style="fill:#ffffff;fill-opacity:1;fill-rule:nonzero;stroke:none"
             id="path859" /></g><g
           id="g861"
           transform="translate(1284.0425,1006.5297)"><path
             d="m 0,0 28.531,-16.246 -61.124,-107.347 -28.531,16.246 z"
             style="fill:#ffffff;fill-opacity:1;fill-rule:nonzero;stroke:none"
             id="path863" /></g><g
           id="g865"
           transform="translate(2150.1208,2527.5432)"><path
             d="m 0,0 28.531,-16.246 -61.124,-107.347 -28.531,16.246 z"
             style="fill:#ffffff;fill-opacity:1;fill-rule:nonzero;stroke:none"
             id="path867" /></g><g
           id="g869"
           transform="translate(1294.1294,2409.8691)"><path
             d="m 0,0 -28.099,-16.982 -63.893,105.723 28.099,16.981 z"
             style="fill:#ffffff;fill-opacity:1;fill-rule:nonzero;stroke:none"
             id="path871" /></g><g
           id="g873"
           transform="translate(2199.4324,911.8703)"><path
             d="m 0,0 -28.099,-16.982 -63.893,105.723 28.099,16.982 z"
             style="fill:#ffffff;fill-opacity:1;fill-rule:nonzero;stroke:none"
             id="path875" /></g><g
           id="g877"
           transform="translate(1002.0746,2121.9827)"><path
             d="m 0,0 -16.246,-28.531 -107.347,61.124 16.246,28.531 z"
             style="fill:#ffffff;fill-opacity:1;fill-rule:nonzero;stroke:none"
             id="path879" /></g><g
           id="g881"
           transform="translate(2523.0881,1255.9044)"><path
             d="m 0,0 -16.246,-28.531 -107.347,61.124 16.246,28.531 z"
             style="fill:#ffffff;fill-opacity:1;fill-rule:nonzero;stroke:none"
             id="path883" /></g><path
           d="m 2514.174,1728.77 h 123.53 v -47.059 h -123.53 z"
           style="fill:#ffffff;fill-opacity:1;fill-rule:nonzero;stroke:none"
           id="path885" /><path
           d="m 763.867,1728.77 h 123.529 v -47.059 H 763.867 Z"
           style="fill:#ffffff;fill-opacity:1;fill-rule:nonzero;stroke:none"
           id="path887" /><g
           id="g889"
           transform="translate(1834.1183,1700.785)"><path
             d="m 0,0 c 0,-73.638 -59.695,-133.333 -133.333,-133.333 -73.638,0 -133.334,59.695 -133.334,133.333 0,73.638 59.696,133.333 133.334,133.333 C -59.695,133.333 0,73.638 0,0"
             style="fill:#ffffff;fill-opacity:1;fill-rule:nonzero;stroke:none"
             id="path891" /></g><g
           id="g893"
           transform="translate(1736.2867,1670.7321)"><path
             d="m 0,0 1.647,17.308 c 0.99,10.403 10.311,18.104 20.714,17.114 l 541.612,-51.537 c 10.403,-0.99 18.105,-10.311 17.115,-20.714 l -1.647,-17.308 C 578.451,-65.54 569.13,-73.241 558.726,-72.252 L 17.115,-20.714 C 6.712,-19.724 -0.99,-10.403 0,0"
             style="fill:#ffffff;fill-opacity:1;fill-rule:nonzero;stroke:none"
             id="path895" /></g><g
           id="g897"
           transform="translate(1706.6384,1716.5461)"><path
             d="m 0,0 -19.754,3.204 c -28.774,4.668 -48.498,32.029 -43.83,60.803 l 61.907,381.65 c 4.667,28.774 32.028,48.497 60.802,43.83 l 19.755,-3.205 c 28.774,-4.667 48.497,-32.028 43.83,-60.802 L 60.802,43.83 C 56.135,15.056 28.774,-4.667 0,0"
             style="fill:#ffffff;fill-opacity:1;fill-rule:nonzero;stroke:none"
             id="path899" /></g><g
           id="g901"
           transform="translate(524.61,2781.3252)"><path
             d="m 0,0 c -18.499,0 -34.405,-11.038 -41.534,-26.879 0.172,1.611 0.266,3.246 0.266,4.904 0,25.155 -20.392,45.547 -45.547,45.547 -20.007,0 -36.989,-12.905 -43.106,-30.841 -8.666,9.055 -22.271,14.896 -37.58,14.896 -26.176,0 -47.396,-17.061 -47.396,-38.107 0,-21.046 21.22,-38.107 47.396,-38.107 16.514,0 31.051,6.792 39.536,17.089 -0.069,-0.845 -0.118,-1.695 -0.118,-2.554 0,-21.046 21.221,-38.107 47.397,-38.107 18.781,0 35.008,8.782 42.68,21.517 8.151,-12.321 22.126,-20.452 38.006,-20.452 25.155,0 45.547,20.392 45.547,45.547 C 45.547,-20.392 25.155,0 0,0"
             style="fill:#d1ecf3;fill-opacity:1;fill-rule:nonzero;stroke:none"
             id="path903" /></g><g
           id="g905"
           transform="translate(557.0029,2743.4819)"><path
             d="m 0,0 c -8.5,0 -16.642,-1.529 -24.169,-4.323 -18.119,20.87 -44.842,34.067 -74.649,34.067 -29.039,0 -55.152,-12.527 -73.232,-32.471 -9.548,14.662 -26.074,24.364 -44.876,24.364 -29.562,0 -53.527,-23.965 -53.527,-53.527 0,-2.384 0.172,-4.726 0.474,-7.028 -7.815,4.464 -16.856,7.028 -26.501,7.028 -29.562,0 -53.527,-23.965 -53.527,-53.527 0,-29.563 23.965,-53.528 53.527,-53.528 13.526,0 25.871,5.028 35.294,13.302 4.086,-31.457 30.98,-55.753 63.55,-55.753 20.981,0 39.606,10.082 51.297,25.665 14.101,-7.749 30.295,-12.161 47.521,-12.161 29.52,0 56.012,12.949 74.12,33.472 7.674,-2.921 15.998,-4.525 24.698,-4.525 38.369,0 69.472,31.104 69.472,69.473 C 69.472,-31.104 38.369,0 0,0"
             style="fill:#edf7fb;fill-opacity:1;fill-rule:nonzero;stroke:none"
             id="path907" /></g><g
           id="g909"
           transform="translate(2670.0405,1033.4569)"><path
             d="m 0,0 c -21.577,0 -40.128,-12.874 -48.444,-31.351 0.201,1.88 0.311,3.787 0.311,5.72 0,29.34 -23.785,53.125 -53.125,53.125 -23.336,0 -43.143,-15.053 -50.278,-35.972 -10.107,10.561 -25.976,17.374 -43.831,17.374 -30.532,0 -55.283,-19.9 -55.283,-44.447 0,-24.548 24.751,-44.447 55.283,-44.447 19.261,0 36.216,7.922 46.113,19.933 -0.081,-0.986 -0.138,-1.977 -0.138,-2.98 0,-24.547 24.751,-44.447 55.283,-44.447 21.904,0 40.831,10.244 49.779,25.097 9.508,-14.371 25.808,-23.855 44.33,-23.855 29.34,0 53.125,23.785 53.125,53.125 C 53.125,-23.785 29.34,0 0,0"
             style="fill:#d1ecf3;fill-opacity:1;fill-rule:nonzero;stroke:none"
             id="path911" /></g><g
           id="g913"
           transform="translate(2707.8225,989.3178)"><path
             d="m 0,0 c -9.914,0 -19.41,-1.784 -28.19,-5.042 -21.133,24.341 -52.302,39.735 -87.068,39.735 -33.871,0 -64.328,-14.611 -85.416,-37.873 -11.137,17.101 -30.412,28.417 -52.341,28.417 -34.481,0 -62.433,-27.952 -62.433,-62.433 0,-2.78 0.201,-5.512 0.553,-8.197 -9.115,5.207 -19.66,8.197 -30.91,8.197 -34.48,0 -62.432,-27.952 -62.432,-62.432 0,-34.481 27.952,-62.433 62.432,-62.433 15.777,0 30.175,5.864 41.166,15.515 4.765,-36.69 36.133,-65.029 74.122,-65.029 24.472,0 46.195,11.76 59.831,29.935 16.447,-9.038 35.336,-14.184 55.428,-14.184 34.431,0 65.331,15.103 86.451,39.04 8.951,-3.406 18.66,-5.277 28.807,-5.277 44.752,0 81.031,36.279 81.031,81.031 C 81.031,-36.279 44.752,0 0,0"
             style="fill:#edf7fb;fill-opacity:1;fill-rule:nonzero;stroke:none"
             id="path915" /></g><g
           id="g917"
           transform="translate(3044.8301,3072.3884)"><path
             d="m 0,0 c -18.729,0 -34.832,-11.175 -42.05,-27.213 0.174,1.631 0.269,3.287 0.269,4.965 0,25.467 -20.645,46.113 -46.113,46.113 -20.255,0 -37.448,-13.066 -43.641,-31.224 -8.773,9.167 -22.548,15.081 -38.047,15.081 -26.501,0 -47.985,-17.273 -47.985,-38.581 0,-21.307 21.484,-38.58 47.985,-38.58 16.719,0 31.437,6.876 40.028,17.302 -0.071,-0.856 -0.12,-1.717 -0.12,-2.587 0,-21.307 21.484,-38.58 47.986,-38.58 19.013,0 35.442,8.891 43.209,21.784 8.253,-12.474 22.402,-20.706 38.479,-20.706 25.467,0 46.113,20.645 46.113,46.113 C 46.113,-20.646 25.467,0 0,0"
             style="fill:#d1ecf3;fill-opacity:1;fill-rule:nonzero;stroke:none"
             id="path919" /></g><g
           id="g921"
           transform="translate(3077.6252,3034.0752)"><path
             d="m 0,0 c -8.605,0 -16.848,-1.548 -24.47,-4.377 -18.343,21.129 -45.398,34.491 -75.576,34.491 -29.4,0 -55.837,-12.683 -74.141,-32.875 -9.667,14.844 -26.398,24.667 -45.433,24.667 -29.93,0 -54.193,-24.263 -54.193,-54.193 0,-2.413 0.174,-4.785 0.48,-7.115 -7.912,4.52 -17.065,7.115 -26.83,7.115 -29.93,0 -54.192,-24.262 -54.192,-54.192 0,-29.929 24.262,-54.192 54.192,-54.192 13.694,0 26.192,5.09 35.732,13.467 4.137,-31.848 31.365,-56.446 64.34,-56.446 21.241,0 40.098,10.208 51.934,25.984 14.276,-7.845 30.671,-12.312 48.111,-12.312 29.888,0 56.709,13.11 75.041,33.887 7.77,-2.956 16.197,-4.58 25.005,-4.58 38.845,0 70.336,31.49 70.336,70.336 C 70.336,-31.49 38.845,0 0,0"
             style="fill:#edf7fb;fill-opacity:1;fill-rule:nonzero;stroke:none"
             id="path923" /></g><g
           id="g925"
           transform="translate(836.5683,3106.3596)"><path
             d="M 0,0 C -21.304,79.283 -1.132,159.935 47.23,218.921 43.892,218.17 40.555,217.352 37.22,216.456 -93.355,181.368 -170.763,47.073 -135.676,-83.503 c 35.087,-130.575 169.383,-207.983 299.958,-172.896 51.293,13.783 94.378,42.877 125.666,81.038 C 162.588,-203.991 34.191,-127.24 0,0"
             style="fill:#ffffff;fill-opacity:1;fill-rule:nonzero;stroke:none"
             id="path927" /></g><g
           id="g929"
           transform="translate(2957.9448,3191.0247)"><path
             d="M 0,0 4.519,-13.907 H 19.142 L 7.311,-22.502 11.83,-36.409 0,-27.814 l -11.83,-8.595 4.518,13.907 -11.83,8.595 h 14.623 z"
             style="fill:#ffffff;fill-opacity:1;fill-rule:nonzero;stroke:none"
             id="path931" /></g><g
           id="g933"
           transform="translate(2561.9053,2832.3828)"><path
             d="M 0,0 3.411,-10.499 H 14.45 L 5.519,-16.987 8.93,-27.485 0,-20.997 l -8.931,-6.488 3.411,10.498 -8.93,6.488 h 11.039 z"
             style="fill:#ffffff;fill-opacity:1;fill-rule:nonzero;stroke:none"
             id="path935" /></g><g
           id="g937"
           transform="translate(1567.4517,3273.228)"><path
             d="M 0,0 5.461,-16.806 H 23.132 L 8.836,-27.193 14.296,-44 0,-33.613 -14.296,-44 l 5.46,16.807 -14.296,10.387 h 17.671 z"
             style="fill:#ffffff;fill-opacity:1;fill-rule:nonzero;stroke:none"
             id="path939" /></g><g
           id="g941"
           transform="translate(335.6826,3326.5344)"><path
             d="M 0,0 6.155,-18.942 H 26.071 L 9.958,-30.649 16.113,-49.591 0,-37.884 l -16.113,-11.707 6.155,18.942 -16.113,11.707 h 19.916 z"
             style="fill:#ffffff;fill-opacity:1;fill-rule:nonzero;stroke:none"
             id="path943" /></g><g
           id="g945"
           transform="translate(398.6889,2256.7803)"><path
             d="M 0,0 4.26,-13.112 H 18.047 L 6.893,-21.215 11.154,-34.327 0,-26.224 l -11.154,-8.103 4.261,13.112 -11.154,8.103 H -4.26 Z"
             style="fill:#ffffff;fill-opacity:1;fill-rule:nonzero;stroke:none"
             id="path947" /></g><g
           id="g949"
           transform="translate(1263.2823,2067.1448)"><path
             d="M 0,0 4.795,-14.759 H 20.314 L 7.759,-23.88 12.555,-38.639 0,-29.518 l -12.555,-9.121 4.796,14.759 -12.555,9.121 h 15.519 z"
             style="fill:#ffffff;fill-opacity:1;fill-rule:nonzero;stroke:none"
             id="path951" /></g><g
           id="g953"
           transform="translate(2117.8608,1918.1379)"><path
             d="M 0,0 7.042,-21.675 H 29.833 L 11.395,-35.071 18.438,-56.746 0,-43.35 l -18.438,-13.396 7.043,21.675 -18.438,13.396 h 22.79 z"
             style="fill:#ffffff;fill-opacity:1;fill-rule:nonzero;stroke:none"
             id="path955" /></g><g
           id="g957"
           transform="translate(1943.8434,2417.3154)"><path
             d="m 0,0 3.928,-12.088 h 12.71 L 6.355,-19.56 10.283,-31.648 0,-24.177 l -10.283,-7.471 3.928,12.088 -10.283,7.472 h 12.71 z"
             style="fill:#ffffff;fill-opacity:1;fill-rule:nonzero;stroke:none"
             id="path959" /></g><g
           id="g961"
           transform="translate(1242.9684,1238.7047)"><path
             d="M 0,0 4.715,-14.512 H 19.974 L 7.63,-23.481 12.345,-37.993 0,-29.024 l -12.345,-8.969 4.716,14.512 -12.345,8.969 h 15.259 z"
             style="fill:#ffffff;fill-opacity:1;fill-rule:nonzero;stroke:none"
             id="path963" /></g><g
           id="g965"
           transform="translate(1976.8467,976.1131)"><path
             d="M 0,0 7.045,-21.683 H 29.844 L 11.399,-35.084 18.445,-56.766 0,-43.366 l -18.444,-13.4 7.045,21.682 -18.445,13.401 h 22.799 z"
             style="fill:#ffffff;fill-opacity:1;fill-rule:nonzero;stroke:none"
             id="path967" /></g><g
           id="g969"
           transform="translate(2153.4365,1372.2633)"><path
             d="M 0,0 4.389,-13.507 H 18.591 L 7.101,-21.854 11.49,-35.361 0,-27.014 l -11.49,-8.347 4.389,13.507 -11.49,8.347 h 14.202 z"
             style="fill:#ffffff;fill-opacity:1;fill-rule:nonzero;stroke:none"
             id="path971" /></g><g
           id="g973"
           transform="translate(926.7417,385.3047)"><path
             d="M 0,0 7.788,-23.969 H 32.991 L 12.601,-38.783 20.39,-62.753 0,-47.939 l -20.39,-14.814 7.788,23.97 -20.389,14.814 h 25.203 z"
             style="fill:#ffffff;fill-opacity:1;fill-rule:nonzero;stroke:none"
             id="path975" /></g><g
           id="g977"
           transform="translate(2993.9485,245.6054)"><path
             d="M 0,0 4.715,-14.512 H 19.974 L 7.629,-23.481 12.345,-37.993 0,-29.024 l -12.345,-8.969 4.715,14.512 -12.344,8.969 h 15.259 z"
             style="fill:#ffffff;fill-opacity:1;fill-rule:nonzero;stroke:none"
             id="path979" /></g><g
           id="g981"
           transform="translate(2603.9094,729.661)"><path
             d="M 0,0 4.941,-15.208 H 20.932 L 7.995,-24.607 12.937,-39.815 0,-30.416 l -12.937,-9.399 4.942,15.208 -12.937,9.399 h 15.991 z"
             style="fill:#ffffff;fill-opacity:1;fill-rule:nonzero;stroke:none"
             id="path983" /></g><g
           id="g985"
           transform="translate(1964.8455,326.8003)"><path
             d="M 0,0 5.431,-16.714 H 23.005 L 8.787,-27.044 14.218,-43.759 0,-33.429 l -14.218,-10.33 5.431,16.715 -14.218,10.33 h 17.574 z"
             style="fill:#ffffff;fill-opacity:1;fill-rule:nonzero;stroke:none"
             id="path987" /></g><g
           id="g989"
           transform="translate(299.679,1497.4692)"><path
             d="M 0,0 5.555,-17.096 H 23.53 L 8.988,-27.661 14.542,-44.757 0,-34.191 l -14.542,-10.566 5.554,17.096 -14.542,10.565 h 17.975 z"
             style="fill:#ffffff;fill-opacity:1;fill-rule:nonzero;stroke:none"
             id="path991" /></g><g
           id="g993"
           transform="translate(2829.3347,2472.3813)"><path
             d="m 0,0 3.767,-11.594 h 12.19 L 6.095,-18.759 9.862,-30.352 0,-23.187 l -9.862,-7.165 3.767,11.593 -9.862,7.165 h 12.19 z"
             style="fill:#ffffff;fill-opacity:1;fill-rule:nonzero;stroke:none"
             id="path995" /></g><g
           id="g997"
           transform="translate(3296.9788,1502.2163)"><path
             d="M 0,0 1.905,-5.864 H 8.071 L 3.083,-9.488 4.988,-15.352 0,-11.728 l -4.988,-3.624 1.905,5.864 -4.988,3.624 h 6.166 z"
             style="fill:#ffffff;fill-opacity:1;fill-rule:nonzero;stroke:none"
             id="path999" /></g><g
           id="g1001"
           transform="translate(272,807.9922)"><path
             d="m 0,0 3.238,-9.965 h 10.478 l -8.477,-6.16 3.238,-9.965 -8.477,6.159 -8.477,-6.159 3.238,9.965 -8.477,6.16 h 10.478 z"
             style="fill:#ffffff;fill-opacity:1;fill-rule:nonzero;stroke:none"
             id="path1003" /></g><g
           id="g1005"
           transform="translate(644.2762,2763.5701)"><path
             d="m 0,0 2.694,-8.292 h 8.719 l -7.054,-5.125 2.694,-8.291 -7.053,5.124 -7.053,-5.124 2.694,8.291 -7.054,5.125 h 8.719 z"
             style="fill:#314a6f;fill-opacity:1;fill-rule:nonzero;stroke:none"
             id="path1007" /></g><g
           id="g1009"
           transform="translate(3169.5171,942.6114)"><path
             d="m 0,0 1.929,-5.938 h 6.244 l -5.051,-3.67 1.929,-5.938 -5.051,3.67 -5.051,-3.67 1.929,5.938 -5.051,3.67 h 6.244 z"
             style="fill:#ffffff;fill-opacity:1;fill-rule:nonzero;stroke:none"
             id="path1011" /></g></g></g></g></svg>
